PathFileType	4	(X/Y/Z)	stereocamera_test1.trc
DataRate	CameraRate	NumFrames	NumMarkers	Units	OrigDataRate	OrigDataStartFrame	OrigNumFrames
28.773259820813234	28.773259820813234	17	15	mm	28.773259820813234	1	335
Frame#	Time	JOINT_NECK			JOINT_RIGHT_CLAVICLE			JOINT_LEFT_CLAVICLE			JOINT_RIGHT_SHOULDER			JOINT_LEFT_SHOULDER			JOINT_RIGHT_ELBOW			JOINT_LEFT_ELBOW			JOINT_LEFT_WRIST			JOINT_RIGHT_WRIST			JOINT_SPINE_3			JOINT_SPINE_2			JOINT_SPINE_1			JOINT_PELVIS			JOINT_RIGHT_HIP			JOINT_LEFT_HIP
		X1	Y1	Z1	X2	Y2	Z2	X3	Y3	Z3	X4	Y4	Z4	X5	Y5	Z5	X6	Y6	Z6	X7	Y7	Z7	X8	Y8	Z8	X9	Y9	Z9	X10	Y10	Z10	X11	Y11	Z11	X12	Y12	Z12	X13	Y13	Z13	X14	Y14	Z14	X15	Y15	Z15

1	1749651070.912000	150.042940	7.506400	877.983400	85.084460	0.810459	934.641840	222.402590	9.975404	877.533700	8.287817	-2.063111	962.358360	277.841450	16.046941	833.913560	-34.891892	-242.217230	979.824300	338.328120	-216.758730	800.300000	nan	nan	nan	-72.387480	-395.157800	986.919900	142.774780	-78.901890	842.640800	138.259770	-162.089390	815.993800	136.473300	-244.570510	805.450140	133.198160	-321.247100	786.120700	49.579803	-336.390380	821.831600	nan	nan	nan
2	1749651071.180000	150.272430	7.077694	873.499160	85.097365	0.810593	934.783700	222.121830	9.962827	876.426040	9.298046	-2.882406	961.852300	279.756300	16.064182	836.584030	-34.161320	-241.805320	978.233500	336.497720	-214.000930	800.245400	nan	nan	nan	-72.522044	-392.171620	993.109760	143.329720	-83.649840	845.916030	138.242050	-162.068640	815.889240	136.444910	-244.519670	805.282650	128.335060	-320.098160	783.309100	47.968850	-335.964620	817.881350	nan	nan	nan
3	1749651071.213000	150.487900	8.165225	877.416800	85.383380	5.461901	938.079200	222.903370	14.356911	879.661140	9.505249	-1.758993	961.060300	278.305740	17.076671	835.166630	-34.676816	-238.871740	979.765100	338.113130	-222.054870	800.026200	nan	nan	nan	-72.488160	-387.144400	991.126360	143.394040	-79.493370	846.315500	138.188150	-162.000450	815.555600	136.447120	-244.518880	805.297260	132.789090	-320.862400	785.280700	47.741514	-337.402370	821.877660	nan	nan	nan
4	1749651071.247000	149.807360	7.398382	873.847250	85.229866	2.300605	936.256470	222.442630	11.374593	877.691600	8.188407	-2.466679	963.915000	278.754950	16.248450	833.655300	-34.390926	-238.146860	980.289400	337.923680	-218.103130	800.829770	nan	nan	nan	-69.439490	-383.567930	988.229700	143.414590	-82.354814	846.426600	138.227750	-162.062150	815.802930	136.435840	-244.511630	805.216850	133.744330	-321.116950	785.801700	47.247674	-337.222400	820.735400	nan	nan	nan
5	1749651071.280000	149.397760	6.844252	872.742200	85.202380	1.019701	935.838760	222.295520	10.158986	877.062200	8.074765	-3.348529	966.018140	279.072100	16.000807	835.585800	-34.503717	-240.257160	979.475560	338.024970	-215.995610	801.291100	nan	nan	nan	-71.968324	-391.258780	989.340070	143.406200	-83.508090	846.338450	138.225560	-162.138970	815.781350	136.444100	-244.614080	805.281800	133.868580	-321.249900	785.891700	47.728937	-337.282240	821.719200	nan	nan	nan
6	1749651071.314000	149.799400	7.490367	875.520650	85.362720	3.749639	937.646700	222.741980	12.735859	878.878200	8.350429	-2.247617	969.137130	279.157730	16.260833	836.846600	-34.923743	-242.869150	978.934500	338.001900	-215.121870	801.484760	nan	nan	nan	-71.344055	-394.590770	989.283260	143.478360	-81.085816	846.786200	138.177990	-161.989300	815.511300	136.442420	-244.519030	805.302260	133.844270	-321.227900	786.082300	46.455000	-337.642250	822.690250	nan	nan	nan
7	1749651071.347000	149.352640	7.221684	874.348000	85.275480	2.386913	936.729000	222.560420	11.459857	878.151360	7.872631	-2.861187	969.277100	278.591250	16.265199	835.272250	-35.042975	-243.184090	979.105500	337.926570	-215.823670	801.719100	nan	nan	nan	-71.519210	-394.809160	989.304200	143.459300	-82.302030	846.682670	138.202980	-161.940890	815.676700	136.454450	-244.454320	805.357500	133.756970	-321.186450	786.168160	45.969060	-337.641540	823.702700	nan	nan	nan
8	1749651071.381000	149.867330	7.448673	876.514900	85.209970	1.482084	935.941700	222.932900	13.121903	879.749060	7.615772	-2.357557	967.659650	279.449760	16.253069	836.277370	-35.480846	-242.882390	979.781870	337.552900	-215.730850	801.803350	nan	nan	nan	-72.761230	-394.648850	990.623060	143.522950	-80.757470	847.090200	138.207110	-161.969750	815.698150	136.456470	-244.480370	805.352450	131.122370	-320.876060	785.262000	46.134174	-336.446170	823.581930	nan	nan	nan
9	1749651071.414000	149.343490	7.646009	871.297240	85.296825	3.496125	937.217200	222.747420	11.716962	878.912030	8.464478	-1.579076	964.293700	279.057380	16.030401	835.867200	-35.179812	-243.247480	980.402100	337.807450	-215.787440	801.139300	nan	nan	nan	-70.542490	-390.459420	986.925840	143.568200	-79.812735	847.403100	138.247550	-162.046920	815.951000	136.467310	-244.516370	805.357000	129.470830	-320.703240	784.708260	47.770295	-337.178050	824.811200	nan	nan	nan
10	1749651071.447000	148.848430	7.150427	871.689440	82.582360	2.124995	937.019770	222.581550	10.550544	878.107600	7.318987	-1.886562	965.310040	278.652000	15.320107	834.473900	-35.616897	-245.012070	980.596300	337.540570	-216.481150	801.455300	nan	nan	nan	-68.271110	-388.848700	985.019560	143.598170	-79.455140	847.539960	138.256850	-162.249240	815.971260	136.477050	-244.725700	805.391430	130.884110	-321.051840	785.150900	47.376886	-337.330580	824.323700	nan	nan	nan
11	1749651071.481000	148.476060	6.954208	865.141900	83.449200	1.405239	936.114200	222.460230	10.046557	877.551200	8.010886	-2.147734	963.726000	278.912800	15.243560	833.485500	-36.008320	-245.936450	980.653460	337.796800	-217.099010	801.506640	nan	nan	nan	-70.986320	-390.637460	987.288950	143.506420	-81.321456	846.824000	138.276790	-162.179830	816.116700	136.471700	-244.633530	805.421000	131.962100	-321.058630	785.493000	48.353102	-338.327880	825.987160	nan	nan	nan
12	1749651071.515000	148.397120	7.114247	867.903650	84.173810	0.991583	935.352150	222.376970	9.823278	877.213200	7.718313	-1.920253	964.934050	278.738800	15.343443	834.754600	-36.275987	-246.426940	980.768000	337.256430	-217.081010	801.056600	nan	nan	nan	-71.457020	-390.658740	988.921460	143.557860	-80.403790	847.191040	138.296280	-162.108840	816.250860	136.458750	-244.529870	805.403230	130.337090	-320.800600	785.065050	48.243344	-338.424560	825.467700	nan	nan	nan
13	1749651071.548000	147.698860	7.089630	865.606700	84.676005	0.745609	934.930740	222.307320	9.745479	877.075900	7.198088	-2.170712	966.180300	278.511580	15.542105	834.547640	-36.099350	-246.195180	981.069300	337.257740	-217.185900	801.305800	nan	nan	nan	-69.958430	-390.180470	986.040000	143.595260	-79.782280	847.510200	138.312010	-162.089800	816.324000	136.465950	-244.492890	805.398460	131.603850	-320.922050	785.525300	48.924950	-338.358940	826.059500	nan	nan	nan
14	1749651071.582000	147.553550	7.269651	864.390130	85.011010	0.569493	934.767250	222.619940	12.061492	878.624300	7.416976	-2.124667	962.762500	278.530870	15.880108	834.824560	-35.433386	-243.114530	981.341400	338.502760	-223.646010	799.282970	nan	nan	nan	-71.142145	-391.378100	987.246040	143.640340	-79.472650	847.800500	138.312700	-162.143650	816.293600	136.463980	-244.543880	805.379000	132.498860	-321.077440	785.783700	48.604585	-338.696500	826.390150	nan	nan	nan
15	1749651071.615000	148.031710	6.773293	868.447500	85.208945	0.688389	934.869000	222.533820	11.415124	878.109500	7.306622	-3.008723	959.966400	278.383200	15.640020	834.444200	-35.345280	-239.471200	981.237000	338.071230	-220.957760	800.334700	nan	nan	nan	-70.299310	-386.869670	985.478000	143.551900	-81.380100	847.109600	138.310540	-162.034660	816.289800	136.455770	-244.434940	805.396300	133.050160	-321.057170	786.018430	49.275525	-337.706360	825.615300	nan	nan	nan
16	1749651071.648000	148.652510	6.250784	871.362100	85.289620	0.611231	935.076650	222.460910	10.699868	877.756300	7.697085	-3.691882	960.661800	278.397830	15.193835	834.504900	-35.538370	-240.681950	981.261500	338.561180	-220.134380	800.167500	nan	nan	nan	-71.357615	-389.826540	986.775400	143.478270	-82.871510	846.626300	138.299480	-162.122920	816.187140	136.456070	-244.530110	805.348930	133.353440	-321.200900	786.065200	49.162123	-337.104020	824.961540	nan	nan	nan
17	1749651071.682000	149.231900	6.379560	873.300850	85.318460	0.687972	935.359000	222.415180	10.287374	877.523100	8.140419	-3.794730	963.068000	278.408900	15.489608	834.307970	-35.582530	-241.823570	980.576500	338.045200	-218.854530	800.902250	nan	nan	nan	-70.590840	-388.359550	988.247000	143.419940	-83.672050	846.291070	138.292300	-162.101340	816.152930	136.452940	-244.514080	805.348040	133.455960	-321.192200	786.046560	49.073680	-337.018550	824.529350	nan	nan	nan
